<?xml version="1.0" encoding="UTF-8"?>
<svg width="645" height="645" version="1.1" viewBox="0 0 645 645" xmlns="http://www.w3.org/2000/svg">
 <path d="m241.65 382.52c-9.573-5.8294-20.586-8.9524-32.084-8.9524-16.532 0-32.068 6.4383-43.745 18.125l-147.69 147.69c-11.688 11.684-18.127 27.22-18.127 43.746s6.4383 32.062 18.121 43.741c11.681 11.69 27.217 18.129 43.748 18.129 16.532 0 32.068-6.4383 43.744-18.125l147.69-147.69c11.688-11.684 18.127-27.22 18.127-43.746 0-11.498-3.1229-22.511-8.9523-32.084z" fill="#3ecc5e"/>
 <path d="m383.7 0c-14.5 0-26.799 10.399-29.199 24.699l-5.8008 34c-11.2 3.5-22.1 8.1012-32.5 13.701l-27.5-19.801c-5-3.6-10.999-5.5-17.199-5.5-7.9 0-15.4 3.1012-20.9 8.7012l-29.9 29.799c-10.2 10.2-11.599 26.3-3.1992 38.1l20 28.102c-5.5 10.5-9.9008 21.399-13.301 32.699l-33.199 5.5996c-14.3 2.4-24.699 14.701-24.699 29.201v42.1c0 14.5 10.399 26.799 24.699 29.199l34 5.8008c3.5 11.2 8.0992 22.1 13.699 32.5l-19.699 27.4c-8.4 11.8-7.1008 27.9 3.1992 38.1l29.801 29.799c5.6 5.6 13 8.7012 20.9 8.7012 6.2 0 12.1-1.9 17.1-5.5l28.1-20c10.1 5.3 20.7 9.6 31.6 13l5.6016 33.6c2.4 14.3 14.699 24.699 29.199 24.699h42.199c14.5 0 26.801-10.399 29.201-24.699l5.6992-33.6c11.3-3.5 22.2-8 32.6-13.5l27.701 19.799c5 3.6 10.999 5.5 17.199 5.5 7.9 0 15.3-3.0992 20.9-8.6992l29.801-29.801c10.2-10.2 11.599-26.3 3.1992-38.1l-19.801-27.799c5.5-10.5 10.1-21.402 13.5-32.602l33.602-5.5996c14.3-2.4 24.699-14.699 24.699-29.199v-42.1c0.2-14.5-10.2-26.801-24.5-29.201l-33.6-5.6992c-3.5-11.3-8-22.2-13.5-32.6l19.799-27.701c8.4-11.8 7.1008-27.9-3.1992-38.1l-29.801-29.801c-5.6-5.6-12.998-8.6992-20.898-8.6992-6.2 0-12.102 1.9-17.102 5.5l-27.799 19.801c-10.8-5.7-22.101-10.4-33.801-13.9l-5.5996-33.201c-2.4-14.3-14.699-24.699-29.199-24.699h-42.102zm22.701 136c57 0 103.3 46.301 103.3 103.3s-46.299 103.3-103.3 103.3-103.3-46.299-103.3-103.3 46.301-103.3 103.3-103.3z" fill="#3ecc5e"/>
 <path d="m620.5 189.1-33.6-5.7c-3.5-11.3-8-22.2-13.5-32.6l19.8-27.7c8.4-11.8 7.1-27.9-3.2-38.1l-29.8-29.8c-5.6-5.6-13-8.7-20.9-8.7-6.2 0-12.1 1.9-17.1 5.5l-27.8 19.8c-10.8-5.7-22.1-10.4-33.8-13.9l-5.6-33.2c-2.4-14.3-14.7-24.7-29.2-24.7h-42.1c-14.5 0-26.8 10.4-29.2 24.7l-5.8 34c-11.2 3.5-22.1 8.1-32.5 13.7l-27.5-19.8c-5-3.6-11-5.5-17.2-5.5-7.9 0-15.4 3.1-20.9 8.7l-29.9 29.8c-10.2 10.2-11.6 26.3-3.2 38.1l20 28.1c-5.5 10.5-9.9 21.4-13.3 32.7l-33.2 5.6c-14.3 2.4-24.7 14.7-24.7 29.2v42.1c0 14.5 10.4 26.8 24.7 29.2l34 5.8c3.5 11.2 8.1 22.1 13.7 32.5l-19.7 27.4c-8.4 11.8-7.1 27.9 3.2 38.1l29.8 29.8c5.6 5.6 13 8.7 20.9 8.7 6.2 0 12.1-1.9 17.1-5.5l28.1-20c10.1 5.3 20.7 9.6 31.6 13l5.6 33.6c2.4 14.3 14.7 24.7 29.2 24.7h42.2c14.5 0 26.8-10.4 29.2-24.7l5.7-33.6c11.3-3.5 22.2-8 32.6-13.5l27.7 19.8c5 3.6 11 5.5 17.2 5.5 7.9 0 15.3-3.1 20.9-8.7l29.8-29.8c10.2-10.2 11.6-26.3 3.2-38.1l-19.8-27.8c5.5-10.5 10.1-21.4 13.5-32.6l33.6-5.6c14.3-2.4 24.7-14.7 24.7-29.2v-42.1c0.2-14.5-10.2-26.8-24.5-29.2zm-2.3 71.3c0 1.3-0.9 2.4-2.2 2.6l-42 7c-5.3 0.9-9.5 4.8-10.8 9.9-3.8 14.7-9.6 28.8-17.4 41.9-2.7 4.6-2.5 10.3 0.6 14.7l24.7 34.8c0.7 1 0.6 2.5-0.3 3.4l-29.8 29.8c-0.7 0.7-1.4 0.8-1.9 0.8-0.6 0-1.1-0.2-1.5-0.5l-34.7-24.7c-4.3-3.1-10.1-3.3-14.7-0.6-13.1 7.8-27.2 13.6-41.9 17.4-5.2 1.3-9.1 5.6-9.9 10.8l-7.1 42c-0.2 1.3-1.3 2.2-2.6 2.2h-42.1c-1.3 0-2.4-0.9-2.6-2.2l-7-42c-0.9-5.3-4.8-9.5-9.9-10.8-14.3-3.7-28.1-9.4-41-16.8-2.1-1.2-4.5-1.8-6.8-1.8-2.7 0-5.5 0.8-7.8 2.5l-35 24.9c-0.5 0.3-1 0.5-1.5 0.5-0.4 0-1.2-0.1-1.9-0.8l-29.8-29.8c-0.9-0.9-1-2.3-0.3-3.4l24.6-34.5c3.1-4.4 3.3-10.2 0.6-14.8-7.8-13-13.8-27.1-17.6-41.8-1.4-5.1-5.6-9-10.8-9.9l-42.3-7.2c-1.3-0.2-2.2-1.3-2.2-2.6v-42.1c0-1.3 0.9-2.4 2.2-2.6l41.7-7c5.3-0.9 9.6-4.8 10.9-10 3.7-14.7 9.4-28.9 17.1-42 2.7-4.6 2.4-10.3-0.7-14.6l-24.9-35c-0.7-1-0.6-2.5 0.3-3.4l29.8-29.8c0.7-0.7 1.4-0.8 1.9-0.8 0.6 0 1.1 0.2 1.5 0.5l34.5 24.6c4.4 3.1 10.2 3.3 14.8 0.6 13-7.8 27.1-13.8 41.8-17.6 5.1-1.4 9-5.6 9.9-10.8l7.2-42.3c0.2-1.3 1.3-2.2 2.6-2.2h42.1c1.3 0 2.4 0.9 2.6 2.2l7 41.7c0.9 5.3 4.8 9.6 10 10.9 15.1 3.8 29.5 9.7 42.9 17.6 4.6 2.7 10.3 2.5 14.7-0.6l34.5-24.8c0.5-0.3 1-0.5 1.5-0.5 0.4 0 1.2 0.1 1.9 0.8l29.8 29.8c0.9 0.9 1 2.3 0.3 3.4l-24.7 34.7c-3.1 4.3-3.3 10.1-0.6 14.7 7.8 13.1 13.6 27.2 17.4 41.9 1.3 5.2 5.6 9.1 10.8 9.9l42 7.1c1.3 0.2 2.2 1.3 2.2 2.6v42.1z"/>
 <path d="m406.4 136c-57 0-103.3 46.3-103.3 103.3s46.3 103.3 103.3 103.3 103.3-46.3 103.3-103.3-46.3-103.3-103.3-103.3zm0 179.6c-42.1 0-76.3-34.2-76.3-76.3s34.2-76.3 76.3-76.3 76.3 34.2 76.3 76.3-34.2 76.3-76.3 76.3z"/>
 <path d="m241.65 382.52c-9.573-5.8294-20.586-8.9524-32.084-8.9524-16.532 0-32.068 6.4383-43.745 18.125l-147.69 147.69c-11.688 11.684-18.127 27.22-18.127 43.746s6.4383 32.062 18.121 43.741c11.681 11.69 27.217 18.129 43.748 18.129 16.532 0 32.068-6.4383 43.744-18.125l147.69-147.69c11.688-11.684 18.127-27.22 18.127-43.746 0-11.498-3.1229-22.511-8.9523-32.084zm-156.87 223.53c-6.1142 6.1201-14.25 9.4905-22.907 9.4905s-16.793-3.3704-22.915-9.4984c-6.1221-6.1182-9.4925-14.255-9.4925-22.909s3.3704-16.791 9.4945-22.911l121.56-121.56 45.824 45.824zm147.7-147.7-5.2971 5.2972-45.825-45.824 5.3011-5.3011c6.1142-6.1201 14.25-9.4905 22.907-9.4905s16.793 3.3704 22.915 9.4984c6.1222 6.1182 9.4926 14.255 9.4926 22.909s-3.3704 16.791-9.4945 22.911z"/>
</svg>
